<?xml version="1.0" encoding="UTF-8" standalone="no"?>
<!-- Created with Inkscape (http://www.inkscape.org/) -->

<svg
   width="139.44298mm"
   height="138.69707mm"
   viewBox="0 0 139.44298 138.69707"
   version="1.1"
   id="svg1"
   xml:space="preserve"
   inkscape:version="1.4.2 (ebf0e940d0, 2025-05-08)"
   sodipodi:docname="server.svg"
   xmlns:inkscape="http://www.inkscape.org/namespaces/inkscape"
   xmlns:sodipodi="http://sodipodi.sourceforge.net/DTD/sodipodi-0.dtd"
   xmlns="http://www.w3.org/2000/svg"
   xmlns:svg="http://www.w3.org/2000/svg"><sodipodi:namedview
     id="namedview1"
     pagecolor="#505050"
     bordercolor="#ffffff"
     borderopacity="1"
     inkscape:showpageshadow="0"
     inkscape:pageopacity="0"
     inkscape:pagecheckerboard="1"
     inkscape:deskcolor="#d1d1d1"
     inkscape:document-units="mm"
     inkscape:zoom="1.048534"
     inkscape:cx="40.055928"
     inkscape:cy="388.63787"
     inkscape:window-width="2560"
     inkscape:window-height="1386"
     inkscape:window-x="0"
     inkscape:window-y="0"
     inkscape:window-maximized="1"
     inkscape:current-layer="layer1" /><defs
     id="defs1" /><g
     inkscape:label="Layer 1"
     inkscape:groupmode="layer"
     id="layer1"
     transform="translate(-72.539148,-38.278642)"><path
       id="rect1"
       style="fill:#ffffff;fill-opacity:0.996078;stroke:#000000;stroke-width:5.2;stroke-linecap:round;stroke-linejoin:round;stroke-miterlimit:4.8;stroke-dasharray:none;stroke-opacity:1;paint-order:stroke fill markers"
       d="m 84.223349,40.878642 c -5.032597,0 -9.084199,4.051602 -9.084199,9.0842 v 20.31529 c 0,5.032599 4.051602,9.083684 9.084199,9.083684 H 200.29844 c 5.0326,0 9.08368,-4.051085 9.08368,-9.083684 v -20.31529 c 0,-5.032598 -4.05108,-9.0842 -9.08368,-9.0842 z m 3.15433,8.074442 c 1.742116,-6.9e-5 3.154398,1.412213 3.15433,3.15433 6.8e-5,1.742117 -1.412213,3.154398 -3.15433,3.154329 -1.742116,6.8e-5 -3.154398,-1.412213 -3.15433,-3.154329 -6.8e-5,-1.742117 1.412212,-3.154398 3.15433,-3.15433 z m 74.882771,4.807459 h 37.68603 c 2.02702,0 3.65869,1.631672 3.65869,3.658691 0,2.027019 -1.63167,3.658692 -3.65869,3.658692 h -37.68603 c -2.02702,0 -3.65921,-1.631673 -3.65921,-3.658692 0,-2.027019 1.63219,-3.658691 3.65921,-3.658691 z m 0,12.71757 h 37.68603 c 2.02702,0 3.65869,1.631672 3.65869,3.658691 0,2.027019 -1.63167,3.658692 -3.65869,3.658692 h -37.68603 c -2.02702,0 -3.65921,-1.631673 -3.65921,-3.658692 0,-2.027019 1.63219,-3.658691 3.65921,-3.658691 z"
       sodipodi:nodetypes="ssssssssscccccssssssssssssss" /><path
       id="rect1-7"
       style="fill:#ffffff;fill-opacity:0.996078;stroke:#000000;stroke-width:5.2;stroke-linecap:round;stroke-linejoin:round;stroke-miterlimit:4.8;stroke-dasharray:none;stroke-opacity:1;paint-order:stroke fill markers"
       d="m 84.223348,87.953515 c -5.032598,0 -9.0842,4.051602 -9.0842,9.0842 v 20.315295 c 0,5.03259 4.051602,9.08368 9.0842,9.08368 H 200.29844 c 5.0326,0 9.08368,-4.05109 9.08368,-9.08368 V 97.037715 c 0,-5.032598 -4.05108,-9.0842 -9.08368,-9.0842 z m 3.154329,8.074442 c 1.742117,-6.9e-5 3.154399,1.412213 3.15433,3.15433 6.8e-5,1.742113 -1.412213,3.154403 -3.15433,3.154333 -1.742116,6e-5 -3.154397,-1.41222 -3.154329,-3.154333 -6.9e-5,-1.742117 1.412212,-3.154398 3.154329,-3.15433 z m 74.882773,4.807463 h 37.68603 c 2.02702,0 3.65869,1.63167 3.65869,3.65869 0,2.02702 -1.63167,3.65869 -3.65869,3.65869 h -37.68603 c -2.02702,0 -3.65921,-1.63167 -3.65921,-3.65869 0,-2.02702 1.63219,-3.65869 3.65921,-3.65869 z m 0,12.71757 h 37.68603 c 2.02702,0 3.65869,1.63167 3.65869,3.65869 0,2.02702 -1.63167,3.65869 -3.65869,3.65869 h -37.68603 c -2.02702,0 -3.65921,-1.63167 -3.65921,-3.65869 0,-2.02702 1.63219,-3.65869 3.65921,-3.65869 z"
       sodipodi:nodetypes="ssssssssscccccssssssssssssss" /><path
       id="rect1-7-3"
       style="fill:#ffffff;fill-opacity:0.996078;stroke:#000000;stroke-width:5.2;stroke-linecap:round;stroke-linejoin:round;stroke-miterlimit:4.8;stroke-dasharray:none;stroke-opacity:1;paint-order:stroke fill markers"
       d="m 84.223348,135.89254 c -5.032598,0 -9.0842,4.0516 -9.0842,9.08419 v 20.3153 c 0,5.03259 4.051602,9.08368 9.0842,9.08368 H 200.29844 c 5.0326,0 9.08368,-4.05109 9.08368,-9.08368 v -20.31529 c 0,-5.0326 -4.05108,-9.0842 -9.08368,-9.0842 z m 3.154329,8.07444 c 1.742117,-7e-5 3.154399,1.41221 3.15433,3.15433 6.8e-5,1.74211 -1.412213,3.1544 -3.15433,3.15433 -1.742116,6e-5 -3.154397,-1.41222 -3.154329,-3.15433 -6.9e-5,-1.74212 1.412212,-3.1544 3.154329,-3.15433 z m 74.882773,4.80746 h 37.68603 c 2.02702,0 3.65869,1.63167 3.65869,3.65869 0,2.02702 -1.63167,3.65869 -3.65869,3.65869 h -37.68603 c -2.02702,0 -3.65921,-1.63167 -3.65921,-3.65869 0,-2.02702 1.63219,-3.65869 3.65921,-3.65869 z m 0,12.71757 h 37.68603 c 2.02702,0 3.65869,1.63167 3.65869,3.65869 0,2.02702 -1.63167,3.65869 -3.65869,3.65869 h -37.68603 c -2.02702,0 -3.65921,-1.63167 -3.65921,-3.65869 0,-2.02702 1.63219,-3.65869 3.65921,-3.65869 z"
       sodipodi:nodetypes="ssssssssscccccssssssssssssss"
       inkscape:export-filename="rect1-7-3.png"
       inkscape:export-xdpi="5.8289061"
       inkscape:export-ydpi="5.8289061" /></g></svg>
